<svg width="150" height="29" viewBox="0 0 150 29" fill="none" xmlns="http://www.w3.org/2000/svg">
<path d="M2.73725 18.4546L8.02428 23.7416C8.02755 23.7449 8.03107 23.7479 8.03433 23.7512C8.0376 23.7545 8.0415 23.7589 8.04527 23.7626C9.5881 25.3053 11.6221 26.2597 13.7947 26.4604C15.9673 26.661 18.1415 26.0954 19.9409 24.8614C21.7403 26.0954 23.9145 26.661 26.0871 26.4604C28.2597 26.2597 30.2936 25.3053 31.8365 23.7626L37.1236 18.4757C38.7708 16.8281 39.7433 14.6246 39.8503 12.2972C39.9574 9.96983 39.1914 7.6863 37.7024 5.8943C36.2134 4.10243 34.1088 2.93114 31.8012 2.61023C29.4936 2.28933 27.1492 2.8418 25.2278 4.15948C23.672 3.0926 21.8299 2.5214 19.9435 2.52077C18.057 2.52027 16.2147 3.09046 14.6583 4.15646C12.7391 2.83062 10.3935 2.27048 8.08233 2.58585C5.77116 2.90136 3.66152 4.06951 2.16769 5.86113C0.673986 7.65275 -0.095736 9.93817 0.00955706 12.2683C0.114976 14.5986 1.08787 16.8052 2.73725 18.4546ZM28.0987 6.80701C29.2923 6.23695 30.6489 6.10728 31.9288 6.44075C33.2088 6.77409 34.3297 7.54934 35.0934 8.62929C35.857 9.70924 36.2144 11.0243 36.1022 12.3422C35.9901 13.6601 35.4156 14.896 34.4804 15.8313L29.1935 21.1184C28.3729 21.9379 27.3187 22.4833 26.1757 22.6797C25.0327 22.876 23.8569 22.7138 22.8098 22.2151L26.5496 18.4757C27.9838 17.049 28.9122 15.1925 29.1935 13.1892C29.2554 12.7512 29.2867 12.3094 29.287 11.867C29.2907 10.1181 28.8003 8.40375 27.8722 6.92135C27.9471 6.8814 28.0226 6.84345 28.0987 6.80739L28.0987 6.80701ZM15.9757 7.90141C17.0285 6.85551 18.453 6.26974 19.937 6.27213C21.421 6.27464 22.8435 6.86531 23.8929 7.9146C24.9422 8.96402 25.5329 10.3865 25.5354 11.8705C25.5378 13.3545 24.952 14.779 23.9061 15.8318L19.9409 19.797L15.9757 15.8318C14.9259 14.7794 14.3364 13.3535 14.3364 11.867C14.3364 10.3806 14.9259 8.95472 15.9757 7.90229L15.9757 7.90141ZM5.38077 7.88042C6.20527 7.05805 7.26499 6.51236 8.41329 6.31874C9.56159 6.12512 10.7417 6.29324 11.7902 6.79985C11.8656 6.83616 11.9402 6.87423 12.014 6.91406C11.0831 8.3981 10.591 10.1152 10.5948 11.867C10.5952 12.3094 10.6263 12.7512 10.6883 13.1892C10.9695 15.1925 11.898 17.049 13.3322 18.4757L17.0491 22.1925L17.0701 22.2135C16.0236 22.7119 14.8484 22.8743 13.7058 22.6784C12.5633 22.4825 11.5095 21.9378 10.6888 21.1192C10.685 21.1155 10.6815 21.1114 10.6778 21.1077C10.6742 21.1039 10.6711 21.1014 10.6678 21.0981L5.40552 15.8358L5.38039 15.8107C4.32884 14.759 3.73804 13.3327 3.73804 11.8455C3.73804 10.3583 4.32884 8.93198 5.38039 7.8803L5.38077 7.88042Z" fill="white"/>
<path d="M52.8407 23H56.2977L59.4149 11.668H59.4852L62.5907 23H66.0477L70.536 6.08984H66.868L64.1844 18.207H64.1141L60.9969 6.08984H57.8915L54.7743 18.207H54.704L52.0321 6.08984H48.3641L52.8407 23ZM74.2977 23.1992C75.9501 23.1992 77.286 22.4141 78.0009 21.125H78.0712V23H81.493V14.3867C81.493 11.8555 79.3954 10.1797 76.1493 10.1797C72.8329 10.1797 70.8407 11.8438 70.6532 14.1641L70.6415 14.3047H73.7704L73.7938 14.1992C73.9579 13.3906 74.7313 12.793 76.0087 12.793C77.3446 12.793 78.0712 13.4844 78.0712 14.5977V15.3711L74.9657 15.5586C71.8485 15.7578 70.079 17.0938 70.079 19.3789V19.4023C70.079 21.6172 71.7782 23.1992 74.2977 23.1992ZM73.4657 19.2266V19.2031C73.4657 18.3125 74.1571 17.75 75.4813 17.668L78.0712 17.5039V18.4062C78.0712 19.7188 76.9462 20.7031 75.411 20.7031C74.2274 20.7031 73.4657 20.1523 73.4657 19.2266ZM83.8251 23H87.2469V18.8398L88.1259 17.8672L91.7235 23H95.6727L90.6923 15.8398L95.4384 10.4375H91.5594L87.3173 15.4648H87.2469V6.08984H83.8251V23ZM100.29 23.1992C101.942 23.1992 103.278 22.4141 103.993 21.125H104.063V23H107.485V14.3867C107.485 11.8555 105.388 10.1797 102.141 10.1797C98.8251 10.1797 96.8329 11.8438 96.6454 14.1641L96.6337 14.3047H99.7626L99.786 14.1992C99.9501 13.3906 100.724 12.793 102.001 12.793C103.337 12.793 104.063 13.4844 104.063 14.5977V15.3711L100.958 15.5586C97.8407 15.7578 96.0712 17.0938 96.0712 19.3789V19.4023C96.0712 21.6172 97.7704 23.1992 100.29 23.1992ZM99.4579 19.2266V19.2031C99.4579 18.3125 100.149 17.75 101.474 17.668L104.063 17.5039V18.4062C104.063 19.7188 102.938 20.7031 101.403 20.7031C100.22 20.7031 99.4579 20.1523 99.4579 19.2266ZM109.7 23H113.122V15.7812C113.122 14.1406 114.095 13.0156 115.63 13.0156C117.165 13.0156 117.938 13.9531 117.938 15.5938V23H121.36V14.8906C121.36 11.9492 119.79 10.1797 117.024 10.1797C115.126 10.1797 113.837 11.0586 113.192 12.5H113.122V10.4375H109.7V23ZM128.181 23.2578C129.997 23.2578 131.38 22.3438 132.048 20.8555H132.118V23H135.54V6.08984H132.118V12.6172H132.048C131.368 11.0938 129.962 10.1797 128.181 10.1797C125.016 10.1797 123.071 12.6172 123.071 16.707V16.7188C123.071 20.7969 125.016 23.2578 128.181 23.2578ZM129.329 20.4219C127.618 20.4219 126.552 19.0039 126.552 16.7188V16.707C126.552 14.4102 127.63 13.0156 129.329 13.0156C130.981 13.0156 132.13 14.4453 132.13 16.707V16.7188C132.13 18.9922 130.993 20.4219 129.329 20.4219ZM141.563 23.1992C143.216 23.1992 144.552 22.4141 145.266 21.125H145.337V23H148.759V14.3867C148.759 11.8555 146.661 10.1797 143.415 10.1797C140.099 10.1797 138.106 11.8438 137.919 14.1641L137.907 14.3047H141.036L141.059 14.1992C141.224 13.3906 141.997 12.793 143.274 12.793C144.61 12.793 145.337 13.4844 145.337 14.5977V15.3711L142.231 15.5586C139.114 15.7578 137.345 17.0938 137.345 19.3789V19.4023C137.345 21.6172 139.044 23.1992 141.563 23.1992ZM140.731 19.2266V19.2031C140.731 18.3125 141.423 17.75 142.747 17.668L145.337 17.5039V18.4062C145.337 19.7188 144.212 20.7031 142.677 20.7031C141.493 20.7031 140.731 20.1523 140.731 19.2266Z" fill="#F7F8F8"/>
</svg>
