<svg width="150" height="30" viewBox="0 0 150 30" fill="none" xmlns="http://www.w3.org/2000/svg">
<path d="M2.73725 18.9546L8.02428 24.2416C8.02755 24.2449 8.03107 24.2479 8.03433 24.2512C8.0376 24.2545 8.0415 24.2589 8.04527 24.2626C9.5881 25.8053 11.6221 26.7597 13.7947 26.9604C15.9673 27.161 18.1415 26.5954 19.9409 25.3614C21.7403 26.5954 23.9145 27.161 26.0871 26.9604C28.2597 26.7597 30.2936 25.8053 31.8365 24.2626L37.1236 18.9757C38.7708 17.3281 39.7433 15.1246 39.8503 12.7972C39.9574 10.4698 39.1914 8.1863 37.7024 6.3943C36.2134 4.60243 34.1088 3.43114 31.8012 3.11023C29.4936 2.78933 27.1492 3.3418 25.2278 4.65948C23.672 3.5926 21.8299 3.0214 19.9435 3.02077C18.057 3.02027 16.2147 3.59046 14.6583 4.65646C12.7391 3.33062 10.3935 2.77048 8.08233 3.08585C5.77116 3.40136 3.66152 4.56951 2.16769 6.36113C0.673986 8.15275 -0.095736 10.4382 0.00955706 12.7683C0.114976 15.0986 1.08787 17.3052 2.73725 18.9546ZM28.0987 7.30701C29.2923 6.73695 30.6489 6.60728 31.9288 6.94075C33.2088 7.27409 34.3297 8.04934 35.0934 9.12929C35.857 10.2092 36.2144 11.5243 36.1022 12.8422C35.9901 14.1601 35.4156 15.396 34.4804 16.3313L29.1935 21.6184C28.3729 22.4379 27.3187 22.9833 26.1757 23.1797C25.0327 23.376 23.8569 23.2138 22.8098 22.7151L26.5496 18.9757C27.9838 17.549 28.9122 15.6925 29.1935 13.6892C29.2554 13.2512 29.2867 12.8094 29.287 12.367C29.2907 10.6181 28.8003 8.90375 27.8722 7.42135C27.9471 7.3814 28.0226 7.34345 28.0987 7.30739L28.0987 7.30701ZM15.9757 8.40141C17.0285 7.35551 18.453 6.76974 19.937 6.77213C21.421 6.77464 22.8435 7.36531 23.8929 8.4146C24.9422 9.46402 25.5329 10.8865 25.5354 12.3705C25.5378 13.8545 24.952 15.279 23.9061 16.3318L19.9409 20.297L15.9757 16.3318C14.9259 15.2794 14.3364 13.8535 14.3364 12.367C14.3364 10.8806 14.9259 9.45472 15.9757 8.40229L15.9757 8.40141ZM5.38077 8.38042C6.20527 7.55805 7.26499 7.01236 8.41329 6.81874C9.56159 6.62512 10.7417 6.79324 11.7902 7.29985C11.8656 7.33616 11.9402 7.37423 12.014 7.41406C11.0831 8.8981 10.591 10.6152 10.5948 12.367C10.5952 12.8094 10.6263 13.2512 10.6883 13.6892C10.9695 15.6925 11.898 17.549 13.3322 18.9757L17.0491 22.6925L17.0701 22.7135C16.0236 23.2119 14.8484 23.3743 13.7058 23.1784C12.5633 22.9825 11.5095 22.4378 10.6888 21.6192C10.685 21.6155 10.6815 21.6114 10.6778 21.6077C10.6742 21.6039 10.6711 21.6014 10.6678 21.5981L5.40552 16.3358L5.38039 16.3107C4.32884 15.259 3.73804 13.8327 3.73804 12.3455C3.73804 10.8583 4.32884 9.43198 5.38039 8.3803L5.38077 8.38042Z" fill="#0077C0"/>
<path d="M52.8407 23.5H56.2977L59.4149 12.168H59.4852L62.5907 23.5H66.0477L70.536 6.58984H66.868L64.1844 18.707H64.1141L60.9969 6.58984H57.8915L54.7743 18.707H54.704L52.0321 6.58984H48.3641L52.8407 23.5ZM74.2977 23.6992C75.9501 23.6992 77.286 22.9141 78.0009 21.625H78.0712V23.5H81.493V14.8867C81.493 12.3555 79.3954 10.6797 76.1493 10.6797C72.8329 10.6797 70.8407 12.3438 70.6532 14.6641L70.6415 14.8047H73.7704L73.7938 14.6992C73.9579 13.8906 74.7313 13.293 76.0087 13.293C77.3446 13.293 78.0712 13.9844 78.0712 15.0977V15.8711L74.9657 16.0586C71.8485 16.2578 70.079 17.5938 70.079 19.8789V19.9023C70.079 22.1172 71.7782 23.6992 74.2977 23.6992ZM73.4657 19.7266V19.7031C73.4657 18.8125 74.1571 18.25 75.4813 18.168L78.0712 18.0039V18.9062C78.0712 20.2188 76.9462 21.2031 75.411 21.2031C74.2274 21.2031 73.4657 20.6523 73.4657 19.7266ZM83.8251 23.5H87.2469V19.3398L88.1259 18.3672L91.7235 23.5H95.6727L90.6923 16.3398L95.4384 10.9375H91.5594L87.3173 15.9648H87.2469V6.58984H83.8251V23.5ZM100.29 23.6992C101.942 23.6992 103.278 22.9141 103.993 21.625H104.063V23.5H107.485V14.8867C107.485 12.3555 105.388 10.6797 102.141 10.6797C98.8251 10.6797 96.8329 12.3438 96.6454 14.6641L96.6337 14.8047H99.7626L99.786 14.6992C99.9501 13.8906 100.724 13.293 102.001 13.293C103.337 13.293 104.063 13.9844 104.063 15.0977V15.8711L100.958 16.0586C97.8407 16.2578 96.0712 17.5938 96.0712 19.8789V19.9023C96.0712 22.1172 97.7704 23.6992 100.29 23.6992ZM99.4579 19.7266V19.7031C99.4579 18.8125 100.149 18.25 101.474 18.168L104.063 18.0039V18.9062C104.063 20.2188 102.938 21.2031 101.403 21.2031C100.22 21.2031 99.4579 20.6523 99.4579 19.7266ZM109.7 23.5H113.122V16.2812C113.122 14.6406 114.095 13.5156 115.63 13.5156C117.165 13.5156 117.938 14.4531 117.938 16.0938V23.5H121.36V15.3906C121.36 12.4492 119.79 10.6797 117.024 10.6797C115.126 10.6797 113.837 11.5586 113.192 13H113.122V10.9375H109.7V23.5ZM128.181 23.7578C129.997 23.7578 131.38 22.8438 132.048 21.3555H132.118V23.5H135.54V6.58984H132.118V13.1172H132.048C131.368 11.5938 129.962 10.6797 128.181 10.6797C125.016 10.6797 123.071 13.1172 123.071 17.207V17.2188C123.071 21.2969 125.016 23.7578 128.181 23.7578ZM129.329 20.9219C127.618 20.9219 126.552 19.5039 126.552 17.2188V17.207C126.552 14.9102 127.63 13.5156 129.329 13.5156C130.981 13.5156 132.13 14.9453 132.13 17.207V17.2188C132.13 19.4922 130.993 20.9219 129.329 20.9219ZM141.563 23.6992C143.216 23.6992 144.552 22.9141 145.266 21.625H145.337V23.5H148.759V14.8867C148.759 12.3555 146.661 10.6797 143.415 10.6797C140.099 10.6797 138.106 12.3438 137.919 14.6641L137.907 14.8047H141.036L141.059 14.6992C141.224 13.8906 141.997 13.293 143.274 13.293C144.61 13.293 145.337 13.9844 145.337 15.0977V15.8711L142.231 16.0586C139.114 16.2578 137.345 17.5938 137.345 19.8789V19.9023C137.345 22.1172 139.044 23.6992 141.563 23.6992ZM140.731 19.7266V19.7031C140.731 18.8125 141.423 18.25 142.747 18.168L145.337 18.0039V18.9062C145.337 20.2188 144.212 21.2031 142.677 21.2031C141.493 21.2031 140.731 20.6523 140.731 19.7266Z" fill="black"/>
</svg>
